<?xml version="1.0" encoding="utf-8"?>
<svg viewBox="0 0 3333 3333" shape-rendering="geometricPrecision" text-rendering="geometricPrecision" image-rendering="optimizeQuality" fill-rule="evenodd" clip-rule="evenodd" xmlns="http://www.w3.org/2000/svg">
  <path d="M 292.307 152 C 283.307 152 275.307 153 269.307 156 C 262.307 159 256.307 163 249.307 170 C 243.307 176 238.307 183 236.307 189 C 233.307 196 232.307 205 232.307 215 L 232.307 3116 C 232.307 3126 233.307 3135 236.307 3142 C 239.307 3149 243.307 3155 249.307 3161 C 255.307 3167 262.307 3172 269.307 3175 C 275.307 3178 283.307 3179 292.307 3179 L 2752.307 3179 C 2762.307 3179 2771.307 3178 2778.307 3175 C 2785.307 3172 2791.307 3168 2797.307 3162 C 2803.307 3156 2808.307 3149 2810.307 3143 C 2813.307 3136 2814.307 3127 2814.307 3117 L 2814.307 216 C 2814.307 206 2813.307 197 2810.307 190 C 2807.307 183 2803.307 177 2797.307 171 C 2791.307 165 2784.307 160 2778.307 158 C 2771.307 155 2762.307 154 2752.307 154 L 292.307 154 Z M 1203.307 1179 L 1203.307 1357 C 1113.307 1380 1117.307 1626 1217.307 1626 C 1248.307 1625 1390.307 1832 1411.307 1867 C 1452.307 1934 1411.307 1958 1411.307 2004 C 975.307 2102 849.307 2040 849.307 2482 L 2375.307 2482 C 2375.307 2040 2249.307 2103 1813.307 2004 C 1813.307 1950 1777.307 1926 1813.307 1867 C 1854.307 1800 1928.307 1706 2005.307 1626 C 2110.307 1628 2113.307 1381 2022.307 1357 L 2022.307 1179 C 2022.307 750 1205.307 750 1205.307 1179 Z M 211.307 16 C 237.307 5 264.307 0 292.307 0 L 2752.307 0 C 2781.307 0 2809.307 5 2835.307 16 C 2861.307 27 2884.307 42 2905.307 63 C 2926.307 84 2941.307 107 2952.307 133 C 2962.307 159 2968.307 186 2968.307 216 L 2968.307 528 L 3159.307 528 C 3173.307 528 3186.307 531 3199.307 537 C 3213.307 544 3225.307 553 3234.307 565 C 3241.307 574 3246.307 584 3249.307 594 C 3252.307 605 3254.307 615 3254.307 625 L 3254.307 1054 C 3254.307 1064 3252.307 1073 3249.307 1083 C 3248.307 1087 3246.307 1091 3244.307 1094 C 3239.307 1104 3231.307 1113 3222.307 1120 C 3217.307 1124 3212.307 1127 3206.307 1130 C 3194.307 1136 3182.307 1139 3169.307 1139 L 2969.307 1139 L 2969.307 1359 L 3160.307 1359 C 3174.307 1359 3188.307 1362 3201.307 1368 C 3215.307 1375 3226.307 1384 3235.307 1396 C 3241.307 1404 3246.307 1412 3249.307 1421 C 3253.307 1432 3255.307 1443 3255.307 1454 L 3255.307 1886 C 3255.307 1899 3252.307 1911 3246.307 1923 C 3242.307 1932 3236.307 1939 3230.307 1946 C 3223.307 1953 3215.307 1959 3207.307 1963 C 3195.307 1969 3183.307 1972 3170.307 1972 L 2970.307 1972 L 2970.307 2192 L 3161.307 2192 C 3172.307 2192 3183.307 2194 3194.307 2198 C 3208.307 2203 3219.307 2210 3229.307 2219 C 3239.307 2229 3246.307 2240 3250.307 2253 C 3254.307 2264 3256.307 2275 3256.307 2286 L 3256.307 2714 C 3256.307 2722 3255.307 2729 3253.307 2737 C 3252.307 2739 3252.307 2741 3251.307 2743 C 3247.307 2756 3240.307 2767 3230.307 2776 C 3223.307 2783 3215.307 2788 3207.307 2793 C 3195.307 2799 3182.307 2802 3170.307 2802 L 2970.307 2802 L 2970.307 3114 C 2970.307 3143 2965.307 3171 2954.307 3197 C 2943.307 3223 2928.307 3246 2907.307 3267 C 2886.307 3288 2863.307 3303 2837.307 3314 C 2811.307 3324 2784.307 3330 2754.307 3330 L 294.307 3330 C 265.307 3330 238.307 3325 213.307 3314 C 188.307 3304 165.307 3288 144.307 3267 C 123.307 3246 108.307 3223 97.307 3197 C 87.307 3171 81.307 3143 81.307 3114 L 81.307 213 C 81.307 184 86.307 156 97.307 130 C 108.307 104 123.307 81 144.307 60 C 165.307 39 188.307 24 213.307 13 Z" fill-rule="nonzero" style="fill: rgb(45, 45, 45);"/>
</svg>