<?xml version="1.0" encoding="utf-8"?>
<svg viewBox="0 0 500 500" xmlns="http://www.w3.org/2000/svg">
  <path d="M 498.625 244.27 C 498.625 277.692 471.518 304.8 438.095 304.8 C 404.673 304.8 377.575 277.692 377.575 244.27 C 377.575 210.848 404.673 183.74 438.095 183.74 C 471.518 183.74 498.625 210.848 498.625 244.27 Z M 123.102 244.27 C 123.102 277.692 95.994 304.8 62.572 304.8 C 29.15 304.8 2.052 277.692 2.052 244.27 C 2.052 210.848 29.15 183.74 62.572 183.74 C 95.994 183.74 123.102 210.848 123.102 244.27 Z M 310.859 244.27 C 310.859 277.692 283.752 304.8 250.329 304.8 C 216.916 304.8 189.809 277.692 189.809 244.27 C 189.809 210.848 216.916 183.74 250.329 183.74 C 283.752 183.74 310.859 210.848 310.859 244.27 Z" style="fill: rgb(45, 45, 45);"/>
</svg>