<?xml version="1.0" encoding="utf-8"?>
<svg viewBox="0 0 640 640" shape-rendering="geometricPrecision" text-rendering="geometricPrecision" image-rendering="optimizeQuality" fill-rule="evenodd" clip-rule="evenodd" xmlns="http://www.w3.org/2000/svg">
  <path d="M13.465 294.204h271.799v-82.442h.047c.012-48.792 19.937-93.12 52.016-125.222 32.103-32.103 76.454-52.04 125.27-52.04v-.047H462.678v.047c48.792.012 93.12 19.937 125.222 52.028 32.103 32.103 52.04 76.454 52.04 125.27h.06V307.467h-76.136v-96.663h.06c-.012-27.768-11.434-53.067-29.8-71.434-18.378-18.39-43.69-29.8-71.481-29.811v.047H462.56v-.047c-27.78.012-53.08 11.41-71.458 29.776l.024.023c-18.378 18.379-29.8 43.69-29.8 71.47h.048v83.375h72.85c7.407 0 13.466 6.059 13.466 13.465v284.437c0 7.405-6.06 13.452-13.465 13.452H13.465C6.048 605.558 0 599.511 0 592.106V307.669c0-7.406 6.048-13.465 13.465-13.465zm215.483 155.624l21.342 98.481-58.5.237 17.173-99.805c-15.98-5.114-27.579-20.09-27.579-37.772 0-21.886 17.764-39.65 39.662-39.65 21.886 0 39.65 17.764 39.65 39.65 0 19.182-13.642 35.186-31.748 38.859z" style="fill: rgb(45, 45, 45);"/>
</svg>