<?xml version="1.0" encoding="utf-8"?>
<svg viewBox="-24746.059 0 333334 333334" shape-rendering="geometricPrecision" text-rendering="geometricPrecision" image-rendering="optimizeQuality" fill-rule="evenodd" clip-rule="evenodd" xmlns="http://www.w3.org/2000/svg">
  <rect x="139393.173" y="-59.682" width="17118.647" height="333505.906" style=""/>
  <rect x="228512.416" y="15086.906" width="68440.255" height="197231.959" style="" transform="matrix(0.70613, -0.708082, 0.708082, 0.70613, -204814.015625, 189448.53125)"/>
  <rect x="221064.583" y="3387.935" width="66209.601" height="44290.688" style="" transform="matrix(0.70613, -0.708082, 0.708082, 0.70613, -23909.328125, 358257.1875)"/>
  <rect x="222672.293" y="3387.935" width="66691.11" height="44290.68" style="" transform="matrix(0.70613, -0.708082, 0.708082, 0.70613, 22406.044922, 408437.28125)"/>
  <rect x="133590.135" y="2477.613" width="40010.697" height="32389.986" style="" transform="matrix(0.70613, -0.708082, 0.708082, 0.70613, 141730.03125, 383375.40625)"/>
  <path style="stroke: rgb(0, 0, 0);" d="M 105889.757 176512.345 L 146863.181 217517.316 L 141401.081 132948.409 L 105889.757 176512.345 Z"/>
  <path style="stroke: rgb(0, 0, 0);" d="M 308785.792 217031.37 L 196646.645 332780.703 C 228591.619 333143.752 308676.623 333410.327 308676.623 333410.327 L 308785.792 217031.37 Z"/>
</svg>