<svg xmlns="http://www.w3.org/2000/svg" viewBox="0 0 333332 329644" shape-rendering="geometricPrecision" text-rendering="geometricPrecision" image-rendering="optimizeQuality" fill-rule="evenodd" clip-rule="evenodd"><path d="M43174 277333L6591 214458c-6616-11371-9054-20324-3547-33465l21507-36129-21549-11587 72235-288 36043 62975-22234-12773-36099 63992c-3425 6070-6263 10673-8029 17590-1064 4170-1576 8360-1743 12561zM57673 82934l34774-60511c9779-12185 21961-16577 33543-13297 9983 2828 12754 7315 18067 15437 6335 9683 11889 20019 17662 30169l-38880 66809-65166-38607zM136804 245L209547 1c13156-44 22129 2321 30756 13661l20535 36690 20809-12869-35869 62702-72559-274 22178-12869-37369-63259c-3544-6001-6111-10760-11220-15748-3079-3006-6452-5545-10006-7790zm158409 112706l35017 60371c5663 14562 3375 27307-5256 35698-7440 7231-12711 7387-22402 7928-11554 644-23281 287-34958 211l-38418-67076 66017-37132zm32046 109874l-36160 63120c-6540 11415-13074 18003-27208 19804l-42042-561 740 24456-36367-62414 36517-62701 55 25641 73468-733c6969-69 12375 87 19248-1843 4143-1164 8027-2815 11749-4770zm-172908 81693l-69791 141c-15443-2376-25337-10731-28287-22401-2543-10059-42-14702 4335-23365 5219-10328 11392-20306 17296-30380l77298 267-851 75739z"/></svg>