<?xml version="1.0" encoding="utf-8"?>
<svg viewBox="0 0 500 500" xmlns="http://www.w3.org/2000/svg">
  <path d="M 20.25 457.239 L 479.79 457.239 C 490.678 457.239 499.605 448.31 499.605 437.415 L 499.145 280.738 C 499.117 270.062 497.578 264.554 493.708 254.547 L 416.318 54.198 C 412.817 45.123 408.312 36.523 398.528 36.523 L 104.946 36.523 C 95.153 36.523 90.778 45.177 87.149 54.198 L 5.381 257.849 C 1.457 267.628 1.06 273.218 1.024 283.812 L 0.435 437.415 C 0.435 448.31 9.361 457.239 20.249 457.239 Z M 437.11 268.543 L 333.989 268.543 L 302.474 331.545 L 197.99 331.545 L 166.05 268.543 L 62.157 268.543 L 134.961 99.351 L 367.255 99.351 L 437.111 268.543 Z" style="fill: rgb(45, 45, 45);"/>
</svg>