<?xml version="1.0" encoding="utf-8"?>
<svg viewBox="0 0 500 500" xmlns="http://www.w3.org/2000/svg">
  <path d="M 190.847 44.185 L 303.976 44.185 C 307.419 44.185 310.227 47.123 310.227 50.703 L 310.227 137.109 C 310.227 140.708 307.418 143.627 303.976 143.627 L 265.3 143.627 L 265.3 247.953 L 471.296 247.953 C 472.894 247.953 474.198 248.971 474.198 250.21 L 474.198 354.187 L 492.522 354.187 C 495.965 354.187 498.764 357.125 498.764 360.705 L 498.764 447.111 C 498.764 450.71 495.964 453.628 492.522 453.628 L 374.83 453.628 C 371.388 453.628 368.588 450.709 368.588 447.111 L 368.588 360.705 C 368.588 357.124 371.388 354.187 374.83 354.187 L 438.431 354.187 L 438.431 277.549 L 265.299 277.549 L 265.299 354.187 L 308.888 354.187 C 312.329 354.187 315.129 357.125 315.129 360.705 L 315.129 447.111 C 315.129 450.71 312.329 453.628 308.888 453.628 L 191.195 453.628 C 187.762 453.628 184.953 450.709 184.953 447.111 L 184.953 360.705 C 184.953 357.124 187.762 354.187 191.195 354.187 L 229.523 354.187 L 229.523 277.549 L 56.392 277.549 L 56.392 354.187 L 125.253 354.187 C 128.696 354.187 131.496 357.125 131.496 360.705 L 131.496 447.111 C 131.496 450.71 128.696 453.628 125.253 453.628 L 7.571 453.628 C 4.128 453.628 1.319 450.709 1.319 447.111 L 1.319 360.705 C 1.319 357.124 4.128 354.187 7.571 354.187 L 20.626 354.187 L 20.626 250.21 C 20.626 248.962 21.929 247.943 23.526 247.943 L 229.524 247.953 L 229.524 143.627 L 190.848 143.627 C 187.413 143.627 184.605 140.708 184.605 137.109 L 184.605 50.703 C 184.605 47.123 187.404 44.185 190.848 44.185 Z" style="fill: rgb(45, 45, 45);"/>
</svg>