<?xml version="1.0" encoding="utf-8"?>
<svg viewBox="0 0 500 500" xmlns="http://www.w3.org/2000/svg">
  <path d="M 24.16 255.958 C 35.343 265.925 46.516 275.35 57.708 284.223 C 72.48 261.784 88.579 241.222 106.074 222.631 C 102.772 216.408 100.902 209.302 100.902 201.774 C 100.902 198.056 101.353 194.448 102.218 190.987 C 83.939 179.141 65.126 165.934 45.54 151.216 C 31.053 181.092 22.944 214.604 22.944 250.003 L 22.991 250.003 L 22.991 250.012 L 22.944 250.012 C 22.944 252.414 22.991 254.807 23.065 257.191 L 24.16 255.958 Z M 56.355 131.465 C 75.959 146.256 94.726 159.509 112.923 171.364 C 121.041 162.703 132.59 157.292 145.384 157.292 C 155.536 157.292 164.887 160.697 172.381 166.422 C 177.748 162.86 183.21 159.444 188.762 156.177 C 211.93 142.556 236.789 131.447 263.472 122.988 C 263.279 121.206 263.184 119.415 263.186 117.622 C 263.186 110.829 264.549 104.35 267.024 98.46 C 239.918 75.486 207.806 55.137 170.843 37.161 C 139.999 48.648 112.333 66.641 89.489 89.486 C 76.84 102.135 65.719 116.225 56.354 131.465 Z M 201.971 28.06 C 231.202 43.788 257.269 61.139 280.094 80.283 C 287.724 73.591 297.424 69.192 308.101 68.179 C 310.528 56.279 312.795 44.346 314.903 32.384 C 294.333 26.257 272.556 22.942 250.006 22.942 L 250.006 22.989 L 249.988 22.989 L 249.988 22.942 C 233.522 22.942 217.46 24.718 201.969 28.06 Z M 336.21 39.932 C 334.351 50.342 332.372 60.731 330.275 71.097 C 345.157 76.685 356.651 89.202 360.821 104.718 C 380.97 103.237 401.926 102.952 423.749 103.909 C 419.543 98.921 415.143 94.097 410.532 89.487 C 389.437 68.4 364.227 51.447 336.21 39.932 Z M 441.025 127.296 C 413.138 125.207 386.695 125.151 361.632 127.039 C 359.58 137.762 354.066 147.26 346.316 154.328 C 352.913 164.492 358.89 175.043 364.219 185.924 C 371.996 201.839 378.402 218.554 383.454 236.069 C 384.992 235.913 386.556 235.819 388.148 235.819 C 408.112 235.819 425.011 248.973 430.634 267.095 C 445.35 267.611 460.565 267.886 476.36 267.979 C 476.83 262.043 477.077 256.059 477.077 250.013 L 477.031 250.013 L 477.031 249.994 L 477.077 249.994 C 477.068 204.813 463.833 162.695 441.025 127.296 Z M 473.507 290.205 C 459.12 290.106 445.204 289.857 431.693 289.406 C 428.084 306.736 414.381 320.377 397.002 323.892 C 397.766 344.666 397.049 366.377 394.803 389.048 C 407.542 387.704 420.463 385.854 433.607 383.525 C 453.424 356.346 467.349 324.62 473.507 290.206 Z M 446.427 403.608 L 446.475 403.838 L 446.208 403.884 C 440.035 411.761 433.393 419.256 426.317 426.332 C 381.227 471.423 318.889 499.32 250.016 499.329 L 250.016 499.374 L 249.998 499.374 L 249.998 499.327 C 181.134 499.327 118.796 471.422 73.686 426.322 C 28.596 381.224 0.7 318.885 0.691 250.012 L 0.644 250.012 L 0.644 250.004 L 0.691 250.004 C 0.691 181.131 28.596 118.793 73.696 73.692 C 118.795 28.593 181.125 0.696 249.988 0.696 L 249.988 0.65 L 250.007 0.65 L 250.007 0.697 C 318.888 0.697 381.227 28.593 426.327 73.702 C 471.426 118.792 499.323 181.13 499.323 249.994 L 499.368 249.994 L 499.368 250.012 L 499.321 250.012 C 499.321 307.969 479.561 361.287 446.426 403.608 Z M 411.536 409.499 C 405.077 410.361 398.601 411.106 392.115 411.735 C 391.299 417.551 390.405 423.356 389.437 429.149 C 396.846 423.383 403.892 417.164 410.532 410.528 L 411.536 409.499 Z M 363.564 446.617 C 365.838 435.316 367.771 424.252 369.363 413.419 C 328.691 415.537 289.823 412.6 252.207 404.657 C 244.862 413.382 233.863 418.941 221.567 418.941 C 220.656 418.941 219.754 418.905 218.87 418.85 C 211.775 436.953 204.897 454.57 198.603 471.21 C 215.456 475.113 232.699 477.08 249.998 477.074 L 249.998 477.028 L 250.016 477.028 L 250.016 477.074 C 291.37 477.074 330.155 465.983 363.564 446.617 Z M 177.129 465.099 C 184.024 446.774 190.907 429.075 197.903 411.21 C 189.095 404.757 183.02 394.791 181.741 383.368 C 141.392 367.382 102.274 345.201 63.599 316.787 C 57.397 327.234 51.459 338.066 45.772 349.277 C 56.89 372.085 71.736 392.776 89.49 410.528 C 113.881 434.919 143.765 453.788 177.129 465.099 Z M 34.763 322.448 C 38.311 315.971 41.984 309.564 45.781 303.23 C 39.082 297.952 32.472 292.561 25.956 287.059 C 27.931 299.074 30.876 310.908 34.763 322.448 Z M 186.17 183.994 C 188.622 189.6 189.886 195.655 189.879 201.775 C 189.879 206.028 189.271 210.15 188.157 214.044 C 212.594 225.732 236.616 235.011 260.952 242.336 C 269.796 215.848 278.3 188.337 286.217 159.557 C 279.992 155.594 274.723 150.301 270.79 144.057 C 245.452 152.028 221.908 162.51 200.022 175.379 C 195.333 178.134 190.714 181.006 186.17 183.993 Z M 176.754 233.316 C 168.709 241.324 157.629 246.266 145.386 246.266 C 136.782 246.276 128.36 243.787 121.143 239.098 C 104.623 256.778 89.417 276.392 75.417 297.791 C 111.682 324.592 148.213 345.642 185.7 360.967 C 192.281 347.832 205.875 338.812 221.568 338.812 C 223.078 338.812 224.559 338.896 226.031 339.062 C 235.356 314.699 244.697 289.581 253.754 263.45 C 227.973 255.655 202.57 245.779 176.754 233.316 Z M 326.824 165.318 C 322.287 166.636 317.586 167.302 312.861 167.297 C 310.983 167.297 309.125 167.205 307.303 166.993 C 299.497 195.25 291.159 222.271 282.479 248.292 C 303.786 253.666 325.526 257.698 348.214 260.662 C 351.508 253.97 356.442 248.245 362.489 243.975 C 357.722 227.058 351.601 210.978 344.146 195.719 C 339.011 185.208 333.229 175.093 326.824 165.318 Z M 374.63 322.686 C 357.353 317.183 344.651 301.417 343.714 282.549 C 320.142 279.41 297.501 275.158 275.281 269.47 C 265.911 296.511 256.257 322.475 246.63 347.63 C 255.76 354.973 261.613 366.249 261.613 378.878 C 261.613 380.543 261.504 382.181 261.31 383.791 C 296.846 390.859 333.644 393.244 372.209 390.925 C 374.749 367.031 375.541 344.297 374.63 322.685 Z" fill-rule="nonzero" style="fill: rgb(45, 45, 45);"/>
</svg>