<?xml version="1.0" encoding="utf-8"?>
<svg viewBox="0 0 640 640" shape-rendering="geometricPrecision" text-rendering="geometricPrecision" image-rendering="optimizeQuality" fill-rule="evenodd" clip-rule="evenodd" xmlns="http://www.w3.org/2000/svg">
  <path d="M272.59 160.904a170.771 170.771 0 0 1 41.374 18.85l23.576-23.586c8.421-8.41 22.181-8.41 30.59 0l31.961 31.96c8.41 8.41 8.41 22.17 0 30.58l-25.736 25.736a171.23 171.23 0 0 1 15.969 42.58h33.33c11.907 0 21.639 9.732 21.639 21.638v45.19c0 11.881-9.732 21.614-21.638 21.614h-36.379a170.805 170.805 0 0 1-18.862 41.374l23.599 23.599c8.41 8.41 8.41 22.17 0 30.579l-31.95 31.96c-8.409 8.41-22.18 8.41-30.59 0l-25.713-25.736a171.026 171.026 0 0 1-42.591 15.97v33.342c0 11.894-9.733 21.626-21.627 21.626h-45.201c-11.894 0-21.626-9.732-21.626-21.626v-36.378a171.667 171.667 0 0 1-41.375-18.863l-23.587 23.599c-8.421 8.41-22.181 8.41-30.59 0L45.2 462.95c-8.41-8.41-8.41-22.17 0-30.58l25.737-25.736a171.14 171.14 0 0 1-15.969-42.59H21.64C9.731 364.044 0 354.323 0 342.43v-45.19c0-11.893 9.732-21.626 21.638-21.626h36.379a171.509 171.509 0 0 1 18.85-41.386L53.28 210.64c-8.41-8.422-8.41-22.182 0-30.591l31.95-31.95c8.42-8.42 22.18-8.42 30.59 0l25.725 25.725a171.314 171.314 0 0 1 42.591-15.968v-33.331c0-11.894 9.733-21.627 21.626-21.627h45.202c11.894 0 21.626 9.733 21.626 21.627v36.378zm248.767 221.578h22.382c5.894 0 10.713 4.819 10.713 10.713v18.012a84.897 84.897 0 0 1 20.504 9.354l11.681-11.693c4.17-4.17 10.985-4.17 15.154 0l15.827 15.827c4.17 4.17 4.17 10.984 0 15.154l-12.744 12.744a84.354 84.354 0 0 1 7.901 21.095h16.512c5.894 0 10.713 4.819 10.713 10.712v22.383c0 5.893-4.819 10.712-10.713 10.712h-18.012A85.317 85.317 0 0 1 601.933 538l11.68 11.68c4.17 4.17 4.17 10.985 0 15.154l-15.826 15.827c-4.17 4.17-10.984 4.17-15.142 0l-12.756-12.744a84.816 84.816 0 0 1-21.095 7.902v16.512c0 5.894-4.819 10.724-10.712 10.724h-22.383c-5.893 0-10.712-4.83-10.712-10.724v-18.012a85.235 85.235 0 0 1-20.493-9.343l-11.693 11.681c-4.17 4.17-10.984 4.17-15.142 0L441.82 560.83c-4.157-4.169-4.157-10.984 0-15.142l12.757-12.756a84.843 84.843 0 0 1-7.914-21.094h-16.512c-5.894 0-10.713-4.82-10.713-10.713v-22.382c0-5.894 4.82-10.713 10.713-10.713h18.024a84.748 84.748 0 0 1 9.33-20.492l-11.68-11.682c-4.17-4.169-4.17-10.996 0-15.153l15.826-15.827c4.17-4.17 10.985-4.17 15.154 0l12.744 12.744a84.381 84.381 0 0 1 21.095-7.913v-16.512c0-5.894 4.82-10.713 10.713-10.713zm8.362 66.272c24.308 0 44.009 19.713 44.009 44.009 0 24.307-19.701 44.008-44.009 44.008-24.295 0-44.008-19.7-44.008-44.008 0-24.296 19.713-44.008 44.008-44.008zm-8.362-411.796h22.382c5.894 0 10.713 4.831 10.713 10.725v18.012a84.863 84.863 0 0 1 20.504 9.343l11.681-11.682c4.17-4.169 10.985-4.169 15.154 0l15.827 15.827c4.17 4.17 4.17 10.985 0 15.142l-12.744 12.745a84.437 84.437 0 0 1 7.901 21.106h16.512c5.894 0 10.713 4.82 10.713 10.713v22.382c0 5.894-4.819 10.713-10.713 10.713h-18.012a85.235 85.235 0 0 1-9.342 20.492l11.68 11.681c4.17 4.17 4.17 10.997 0 15.154l-15.826 15.827c-4.17 4.17-10.984 4.17-15.142 0l-12.756-12.744a84.843 84.843 0 0 1-21.095 7.913v16.512c0 5.894-4.819 10.713-10.712 10.713h-22.383c-5.893 0-10.712-4.819-10.712-10.713v-18.023a84.782 84.782 0 0 1-20.493-9.343l-11.693 11.693c-4.17 4.17-10.984 4.17-15.142 0l-15.839-15.827c-4.157-4.17-4.157-10.984 0-15.154l12.757-12.744a84.843 84.843 0 0 1-7.914-21.095h-16.512c-5.894 0-10.713-4.819-10.713-10.712V133.23c0-5.893 4.82-10.712 10.713-10.712h18.024a84.83 84.83 0 0 1 9.33-20.505l-11.68-11.68c-4.17-4.17-4.17-10.985 0-15.154l15.826-15.827c4.17-4.17 10.985-4.17 15.154 0l12.744 12.744a84.843 84.843 0 0 1 21.095-7.914v-16.5c0-5.894 4.82-10.724 10.713-10.724zm8.362 66.285c24.308 0 44.009 19.7 44.009 44.008 0 24.296-19.701 44.009-44.009 44.009-24.295 0-44.008-19.713-44.008-44.009 0-24.307 19.713-44.008 44.008-44.008zM222.652 236.697c49.064 0 88.856 39.78 88.856 88.843 0 49.052-39.792 88.844-88.856 88.844-49.063 0-88.855-39.792-88.855-88.844 0-49.063 39.792-88.843 88.855-88.843z" style="fill: rgb(45, 45, 45);"/>
</svg>