<?xml version="1.0" encoding="utf-8"?>
<svg shape-rendering="geometricPrecision" text-rendering="geometricPrecision" image-rendering="optimizeQuality" fill-rule="evenodd" clip-rule="evenodd" viewBox="0 0 640 640" xmlns="http://www.w3.org/2000/svg">
  <path d="M485.297 72.71v40.264h63.533v.118c20.031.024 38.208 8.197 51.342 21.355a72.402 72.402 0 0 1 21.201 51.13h.119V567.35h-.119c-.035 20.008-8.196 38.197-21.354 51.343-13.051 13.027-31.146 21.154-51.13 21.189V640H227.376v-.118c-20.02-.024-38.21-8.197-51.343-21.343a72.423 72.423 0 0 1-21.201-51.13h-.118v-85.572H91.182v-.118c-20.02-.024-38.209-8.197-51.343-21.343-13.04-13.063-21.154-31.158-21.2-51.13h-.119V72.661h.118c.036-20.032 8.209-38.221 21.355-51.343A72.402 72.402 0 0 1 91.123.118v-.119h321.512v.119c20.031.023 38.209 8.197 51.343 21.354 13.04 13.051 21.154 31.146 21.2 51.119h.119v.118zm-55.135 40.264V72.59h.119c-.012-4.712-2.044-9.118-5.28-12.366-3.2-3.2-7.595-5.209-12.366-5.209v.119H91.123v-.119c-4.736.012-9.13 2.044-12.366 5.28-3.2 3.2-5.22 7.595-5.22 12.366h.118v336.584h-.118c.011 4.724 2.055 9.118 5.29 12.366 3.19 3.2 7.596 5.209 12.355 5.209v-.118h63.533V185.636h.118c.023-20.031 8.209-38.22 21.354-51.343a72.402 72.402 0 0 1 51.131-21.2v-.119h202.846zM566.359 567.29V185.578h.118c-.012-4.725-2.056-9.13-5.292-12.379-3.189-3.2-7.594-5.208-12.354-5.208v.118H227.318v-.118c-4.736.012-9.141 2.043-12.378 5.28-3.2 3.2-5.208 7.594-5.208 12.366h.118V567.409h-.118c.011 4.724 2.043 9.118 5.28 12.366 3.2 3.201 7.594 5.209 12.365 5.209v-.118H548.89v.118c4.724-.012 9.13-2.043 12.366-5.28 3.2-3.189 5.22-7.594 5.22-12.354h-.118v-.06z" style="fill: rgb(45, 45, 45);"/>
</svg>