<?xml version="1.0" encoding="utf-8"?>
<svg shape-rendering="geometricPrecision" text-rendering="geometricPrecision" image-rendering="optimizeQuality" fill-rule="evenodd" clip-rule="evenodd" viewBox="0 0 640 640" xmlns="http://www.w3.org/2000/svg">
  <path fill-rule="nonzero" d="M638.37 153.97L640 481.458c.07 17.103-10.69 31.796-26.02 37.985l.035.07-284.59 115.077a43.54 43.54 0 0 1-17.964 3.106 41.238 41.238 0 0 1-23.457-2.575L25.713 524.864l.023-.07C10.582 518.426-.059 503.284 0 485.673l1.547-323.342c-.2-3.437 0-6.922.65-10.382a39.743 39.743 0 0 1 3.035-14.351c4.394-10.642 12.886-18.496 23.008-22.571l-.023-.047L301.976 4.77c11.15-4.489 23.126-4.004 33.343.39l273.275 98.824c16.358 5.905 26.693 20.622 27.425 36.531a39.716 39.716 0 0 1 2.35 13.453zM268.279 566.522l2.043-285.263-219.168-94.737-4.63 286.42 221.755 93.58zm323.284-379.989l-244.928 94.785 1.937 284.944 244.468-91.336-1.476-288.393z" style="fill: rgb(45, 45, 45);"/>
</svg>