<?xml version="1.0" ?><svg id="Layer_1" style="enable-background:new 0 0 64 64;" version="1.1" viewBox="0 0 64 64" xml:space="preserve" xmlns="http://www.w3.org/2000/svg" xmlns:xlink="http://www.w3.org/1999/xlink"><g><g><path d="M32.331,46.326c-1.753,0-3.278-0.711-4.32-2.024c-0.971-1.222-1.384-2.833-1.135-4.421l1.196-7.618    l-0.276,0.142c-1.383,0.711-3.081,0.166-3.792-1.217c-0.711-1.383-0.166-3.081,1.217-3.792l5.205-2.676    c0.943-0.485,2.078-0.399,2.937,0.222c0.859,0.621,1.297,1.672,1.132,2.719L32.45,40.685c0.41-0.043,1.467-0.301,3.435-1.668    c1.277-0.888,3.032-0.572,3.919,0.705c0.888,1.277,0.572,3.032-0.705,3.919c-2.459,1.71-4.568,2.585-6.446,2.677    C32.545,46.324,32.437,46.326,32.331,46.326z" style="fill:#515151;"/></g><g><circle cx="32.803" cy="19.233" r="3.143" style="fill:#515151;"/></g><g><g><path d="M32,59.5C16.836,59.5,4.5,47.164,4.5,32S16.836,4.5,32,4.5S59.5,16.837,59.5,32     S47.163,59.5,32,59.5z M32,10.132c-12.058,0-21.868,9.81-21.868,21.868S19.942,53.868,32,53.868     c12.058,0,21.868-9.81,21.868-21.868S44.058,10.132,32,10.132z" style="fill:#515151;"/></g></g></g></svg>