<?xml version="1.0" encoding="utf-8"?>
<svg viewBox="-325.005 -138.77 642 642.831" xmlns="http://www.w3.org/2000/svg">
  <g id="Layer_x0020_1" transform="matrix(-1, 0, 0, 1, 316.622589, -137.32814)">
    <path class="fil0" d="M466.116 26.4452l-292.232 0c-65.0559,0 -118.289,53.2329 -118.289,118.289l0 208.751c0,65.0441 53.2329,118.289 118.289,118.289l91.8909 0c-13.1458,52.0046 -29.0673,98.7414 -77.7175,141.876 93.013,-23.7877 164.813,-71.871 217.503,-141.876l15.886 0c65.0559,0 162.959,-53.2329 162.959,-118.289l0 -208.751c0,-65.0559 -53.2329,-118.289 -118.289,-118.289zm-14.4096 187.455c-23.705,0 -42.9218,19.2286 -42.9218,42.9336 0,23.705 19.2168,42.9218 42.9218,42.9218 23.705,0 42.9336,-19.2168 42.9336,-42.9218 0,-23.705 -19.2286,-42.9336 -42.9336,-42.9336zm-263.413 0c-23.705,0 -42.9218,19.2286 -42.9218,42.9336 0,23.705 19.2168,42.9218 42.9218,42.9218 23.705,0 42.9336,-19.2168 42.9336,-42.9218 0,-23.705 -19.2286,-42.9336 -42.9336,-42.9336zm131.706 0c-23.705,0 -42.9336,19.2286 -42.9336,42.9336 0,23.705 19.2286,42.9218 42.9336,42.9218 23.705,0 42.9336,-19.2168 42.9336,-42.9218 0,-23.705 -19.2286,-42.9336 -42.9336,-42.9336zm-146.116 -213.9l292.232 0 0.0354335 0 0 0.0944894c39.8863,0.0118112 76.0639,16.2404 102.202,42.3903l-0.0472447 0.0590558c26.1854,26.209 42.4375,62.3748 42.4493,102.178l0.0944894 0 0 0.0118112 -0.0944894 0 0 208.751 0.0944894 0 0 0.0236223 -0.0944894 0c-0.0118112,42.5556 -29.5752,79.6309 -68.9654,105.521 -36.6737,24.1184 -82.9853,39.0832 -120.332,39.095l0 0.0944894 -0.0118112 0 0 -0.0944894 -3.00004 0c-26.3743,32.8587 -56.9889,60.8984 -92.0563,83.9302 -38.7643,25.4531 -82.6191,44.6462 -131.824,57.2251l-0.0118112 -0.0826782c-9.25996,2.35042 -19.4648,-0.437013 -26.2326,-8.07884 -9.63791,-10.9017 -8.62215,-27.5673 2.26774,-37.2052 21.4491,-19.016 35.6815,-38.8115 45.9691,-59.5519 5.74023,-11.5513 10.3466,-23.6223 14.3624,-36.1422l-57.0361 0 -0.0354335 0 0 -0.0944894c-39.8863,-0.0118112 -76.0521,-16.2522 -102.202,-42.3903 -26.1499,-26.1617 -42.3903,-62.3393 -42.4021,-102.237l-0.0944894 0 0 -0.0118112 0.0944894 0 0 -208.751 -0.0944894 0 0 -0.0354335 0.0944894 0c0.0118112,-39.0713 15.6498,-74.5993 40.9375,-100.619 0.460636,-0.543314 0.944894,-1.07482 1.45277,-1.5827 26.1499,-26.1499 62.3393,-42.3903 102.226,-42.4021l0 -0.0944894 0.0236223 0z"/>
  </g>
</svg>