<?xml version="1.0" encoding="utf-8"?>
<svg version="1.1" width="1024" height="1024" viewBox="245.717 234.862 557.393 558.164" xmlns="http://www.w3.org/2000/svg">
  <desc>Created with Fabric.js 3.1.0</desc>
  <g transform="matrix(1.5745007680491552 0 0 1.5745007680491552 535.6175115207374 439.5729646697389)" style="" id="logo-logo">
    <g transform="matrix(0.13 0 0 -0.13 0 -2.842171e-14)">
      <linearGradient id="SVGID_19199" gradientUnits="userSpaceOnUse" gradientTransform="matrix(-0.0000872 1993.78 1993.78 0.0000872 13673.5 1477.4)" x1="0" y1="-2.2737367544323206e-13" x2="1" y2="-2.2737367544323206e-13">
        <stop offset="0" style="stop-color:rgb(62,60,62);stop-opacity: 1"/>
        <stop offset="0.3299" style="stop-color:rgb(17,15,14);stop-opacity: 1"/>
        <stop offset="1" style="stop-color:rgb(17,15,14);stop-opacity: 1"/>
      </linearGradient>
      <path style="stroke: none; stroke-width: 1; stroke-dasharray: none; stroke-linecap: butt; stroke-dashoffset: 0; stroke-linejoin: miter; stroke-miterlimit: 4; fill: url(#SVGID_19199); fill-rule: nonzero; opacity: 1;" paint-order="stroke" transform=" translate(-13673.45, -2474.2634947998863)" d="m 14500.9 1747.7 c -649.1 463.6 -657.1 627.4 -1002.6 762.6 c 211.3 55.1 364.4 217.6 364.4 409.61 c 0 236.76 -233 428.09 -520.1 432.05 c -307.4 36.86 -703.4 49.18 -978 119.2 c 203.5 -149.53 435.3 -227.17 652.2 -264.78 c -63.1 -39.57 -130 -73.75 -200.4 -102.05 c 255 -57.47 426.3 45.91 614.5 6.54 c 52 -17.6 100 -44.98 131.3 -87.62 c 1.2 -1.65 2.3 -3.32 3.4 -5 c 2.1 -3.06 4.1 -6.21 6 -9.42 c 1.2 -2 2.4 -4 3.6 -6.03 c 12.7 -23.18 21.1 -50.09 23.4 -81.5 l 1 1.81 l 0.2 -1.86 l 0.3 0.05 c 0 -2.01 0 -3.95 0 -6.02 V 2913 c 0 -1.12 0.1 -2.21 0.1 -3.32 c 0 -9.71 -0.9 -19.26 -2.3 -28.67 c -14.5 -107.95 -97.4 -163.83 -188.9 -192.29 c -27.2 -9.3 -56.4 -16.02 -87 -19.52 c -97.2 -14.6 -182.4 -6.8 -182.4 -6.8 l -0.8 0.6 c -47 0.7 -124.7 0.2 -210.1 -7.4 c -144.8 -13 -342.8 -48.8 -424.6 -148.4 c -12.8 -15.6 -25 -58.9 -37.8 -81.8 c -1.5 -1.7 -3.2 -3.6 -5.1 -6 c -29.1 -36.2 -99.5 -144.7 -6.3 -258.2 c 0 0 89.6 198.9 545.1 145.5 c 11.6 -1.3 22.6 -2.8 33 -3.9 c 208.4 -54 310.6 -74 507.4 -274.4 c 328.6 -334.7 637.4 -583.9 1441.9 -547.5 c 0 0 -238.9 93.5 -481.4 266.8" stroke-linecap="round"/>
    </g>
  </g>
  <g transform="matrix(1.5745007680491552 0 0 1.5745007680491552 511.8917530721966 745.9336233381005)">
    <path style="stroke: none; stroke-width: 1; stroke-dasharray: none; stroke-linecap: butt; stroke-dashoffset: 0; stroke-linejoin: miter; stroke-miterlimit: 4; fill: rgb(20,12,12); fill-rule: nonzero; opacity: 1;" paint-order="stroke" transform=" translate(-170.525, 16.83)" d="M 20.91 0 L 1.86 0 L 1.86 -0.54 L 2.54 -0.54 Q 3.91 -0.54 4.9 -1.5 Q 5.9 -2.46 5.93 -3.83 L 5.93 -3.83 L 5.93 -33.25 Q 5.9 -34.63 4.9 -35.6 Q 3.91 -36.57 2.54 -36.57 L 2.54 -36.57 L 1.92 -36.57 L 1.92 -37.11 L 22.57 -37.11 Q 24.35 -37.11 25.96 -36.96 Q 27.56 -36.8 29.44 -36.44 Q 31.31 -36.08 32.8 -35.34 Q 34.29 -34.6 35.56 -33.53 Q 36.83 -32.45 37.52 -30.8 Q 38.22 -29.14 38.2 -27.04 L 38.2 -27.04 Q 38.2 -24.64 37.29 -22.64 Q 36.39 -20.65 34.86 -19.38 Q 33.33 -18.12 31.34 -17.49 L 31.34 -17.49 Q 29.89 -17.05 28.39 -17.08 L 28.39 -17.08 Q 27.82 -17.08 27.22 -17.13 L 27.22 -17.13 Q 28.26 -16.9 29.19 -16.46 Q 30.12 -16.02 30.99 -15.31 Q 31.86 -14.6 32.53 -13.91 Q 33.2 -13.22 34.03 -12.11 Q 34.86 -11 35.42 -10.18 Q 35.97 -9.37 36.9 -7.97 Q 37.83 -6.57 38.43 -5.72 L 38.43 -5.72 Q 40.79 -2.33 43.11 0.08 Q 45.44 2.48 48.3 4.33 Q 51.16 6.19 54.59 7.21 Q 58.02 8.23 62.21 8.49 L 62.21 8.49 L 62.21 9.01 Q 60.89 9.94 59.09 10.71 Q 57.3 11.49 54.86 11.98 L 54.86 11.98 Q 52.48 12.47 49.89 12.53 L 49.89 12.53 Q 49.77 12.53 49.64 12.53 L 49.64 12.53 Q 47.18 12.53 44.38 11.8 L 44.38 11.8 Q 41.46 11.05 38.69 9.55 Q 35.92 8.05 33.1 5.25 Q 30.28 2.46 27.92 -1.37 L 27.92 -1.37 Q 26.66 -3.44 25.32 -6.11 Q 23.99 -8.77 22.81 -11.39 Q 21.63 -14 21.35 -14.57 L 21.35 -14.57 Q 19.82 -17.73 18.61 -18.14 L 18.61 -18.14 L 18.61 -18.66 L 19.46 -18.66 Q 20.55 -18.66 21.65 -19.01 Q 22.75 -19.36 23.82 -20.08 Q 24.9 -20.81 25.67 -22.13 Q 26.45 -23.45 26.71 -25.18 L 26.71 -25.18 Q 26.81 -26.16 26.81 -26.89 L 26.81 -26.89 Q 26.81 -27.12 26.81 -27.35 L 26.81 -27.35 Q 26.66 -30.77 24.39 -32.56 Q 22.13 -34.34 19.18 -34.34 L 19.18 -34.34 L 16.85 -34.34 L 16.85 -3.86 Q 16.87 -2.48 17.86 -1.51 Q 18.84 -0.54 20.24 -0.54 L 20.24 -0.54 L 20.91 -0.54 L 20.91 0 Z M 49.21 -4.36 Q 43.35 -9.47 43.35 -18.56 Q 43.35 -27.64 49.21 -32.74 Q 55.07 -37.83 65.34 -37.83 Q 75.62 -37.83 81.49 -32.74 Q 87.37 -27.64 87.37 -18.56 Q 87.37 -9.47 81.49 -4.36 Q 75.62 0.75 65.34 0.75 Q 55.07 0.75 49.21 -4.36 Z M 57.76 -30.8 Q 55.04 -26.4 55.04 -18.56 Q 55.04 -10.71 57.76 -6.31 Q 60.48 -1.92 65.34 -1.92 Q 70.21 -1.92 72.94 -6.31 Q 75.67 -10.71 75.67 -18.56 Q 75.67 -26.4 72.94 -30.8 Q 70.21 -35.2 65.34 -35.2 Q 60.48 -35.2 57.76 -30.8 Z M 67.22 -4.36 Q 61.36 -9.47 61.36 -18.56 Q 61.36 -27.64 67.22 -32.74 Q 73.08 -37.83 83.36 -37.83 Q 93.63 -37.83 99.5 -32.74 Q 105.38 -27.64 105.38 -18.56 Q 105.38 -9.47 99.5 -4.36 Q 93.63 0.75 83.36 0.75 Q 73.08 0.75 67.22 -4.36 Z M 75.77 -30.8 Q 73.06 -26.4 73.06 -18.56 Q 73.06 -10.71 75.77 -6.31 Q 78.49 -1.92 83.36 -1.92 Q 88.22 -1.92 90.95 -6.31 Q 93.68 -10.71 93.68 -18.56 Q 93.68 -26.4 90.95 -30.8 Q 88.22 -35.2 83.36 -35.2 Q 78.49 -35.2 75.77 -30.8 Z M 126.73 0 L 107.71 0 L 107.73 -0.54 L 108.41 -0.54 Q 109.8 -0.54 110.79 -1.51 Q 111.77 -2.48 111.8 -3.86 L 111.8 -3.86 L 111.8 -33.28 Q 111.77 -34.65 110.77 -35.61 Q 109.78 -36.57 108.41 -36.57 L 108.41 -36.57 L 107.73 -36.57 L 107.71 -37.11 L 126.73 -37.11 L 126.73 -36.57 L 126.06 -36.57 Q 124.68 -36.57 123.69 -35.61 Q 122.69 -34.65 122.67 -33.28 L 122.67 -33.28 L 122.67 -3.86 Q 122.69 -2.48 123.68 -1.51 Q 124.66 -0.54 126.06 -0.54 L 126.06 -0.54 L 126.73 -0.54 L 126.73 0 Z M 124.37 -16.87 L 124.37 -16.87 L 137.03 -34.13 Q 137.42 -34.68 137.42 -35.2 L 137.42 -35.2 Q 137.39 -35.53 137.24 -35.84 L 137.24 -35.84 Q 136.82 -36.64 135.76 -36.64 L 135.76 -36.64 L 135.24 -36.64 L 135.24 -37.11 L 148.03 -37.11 L 148.03 -36.62 L 147.79 -36.62 Q 146.09 -36.62 144.56 -35.91 Q 143.03 -35.2 141.97 -34 L 141.97 -34 L 133.02 -23.21 L 145.39 -4.55 Q 147.98 -0.62 151.06 -0.54 L 151.06 -0.54 L 151.06 0 L 145.34 0 Q 141.27 0 138.53 -0.8 L 138.53 -0.8 Q 134.08 -2.1 131.72 -5.31 L 131.72 -5.31 Q 130.97 -6.31 129.15 -9.17 Q 127.32 -12.03 125.85 -14.43 Q 124.37 -16.82 124.37 -16.87 Z M 170.23 0 L 151.21 0 L 151.24 -0.52 L 151.91 -0.52 Q 153.31 -0.52 154.29 -1.5 Q 155.27 -2.48 155.3 -3.86 L 155.3 -3.86 L 155.3 -33.25 Q 155.25 -34.63 154.26 -35.6 Q 153.28 -36.57 151.91 -36.57 L 151.91 -36.57 L 151.24 -36.57 L 151.21 -37.11 L 170.23 -37.11 L 170.23 -36.57 L 169.56 -36.57 Q 168.19 -36.57 167.19 -35.61 Q 166.19 -34.65 166.17 -33.28 L 166.17 -33.28 L 166.17 -3.86 Q 166.19 -2.48 167.18 -1.5 Q 168.16 -0.52 169.56 -0.52 L 169.56 -0.52 L 170.23 -0.52 L 170.23 0 Z M 204.37 0 L 173.36 0 L 173.39 -0.52 L 174.06 -0.52 Q 175.46 -0.52 176.44 -1.5 Q 177.43 -2.48 177.45 -3.86 L 177.45 -3.86 L 177.45 -33.25 Q 177.4 -34.63 176.43 -35.6 Q 175.46 -36.57 174.06 -36.57 L 174.06 -36.57 L 173.39 -36.57 L 173.39 -37.11 L 196.83 -37.11 Q 198.49 -37.14 200.43 -37.43 Q 202.37 -37.73 203.15 -38.07 L 203.15 -38.07 L 203.15 -27.12 L 202.61 -27.15 L 202.61 -27.56 Q 202.61 -30.69 200.87 -32.5 Q 199.14 -34.32 196.01 -34.42 L 196.01 -34.42 L 188.32 -34.42 L 188.32 -19.62 L 194.09 -19.62 Q 196.6 -19.64 198.22 -21.27 Q 199.84 -22.9 199.84 -25.41 L 199.84 -25.41 L 199.84 -25.67 L 200.35 -25.67 L 200.35 -10.92 L 199.84 -10.92 L 199.84 -11.18 Q 199.84 -13.66 198.26 -15.28 Q 196.68 -16.9 194.17 -16.98 L 194.17 -16.98 L 188.32 -16.98 L 188.32 -2.69 L 194.87 -2.69 Q 198.72 -2.69 201.67 -5.23 Q 204.62 -7.76 205.87 -12.27 L 205.87 -12.27 L 206.38 -12.27 L 204.37 0 Z M 205.79 9.65 L 205.79 9.11 Q 207.21 8.54 208.33 7.8 Q 209.44 7.06 210.16 6.34 Q 210.89 5.62 211.39 4.57 Q 211.9 3.52 212.16 2.73 Q 212.41 1.94 212.54 0.65 Q 212.67 -0.65 212.7 -1.46 Q 212.72 -2.28 212.72 -3.73 L 212.72 -3.73 L 212.72 -33.28 Q 212.7 -34.65 211.7 -35.61 Q 210.71 -36.57 209.33 -36.57 L 209.33 -36.57 L 208.66 -36.57 L 208.64 -37.11 L 227.66 -37.11 L 227.66 -36.57 L 226.98 -36.57 Q 225.64 -36.57 224.65 -35.65 Q 223.67 -34.73 223.59 -33.31 L 223.59 -33.31 L 223.59 -19.88 L 237.83 -19.88 L 237.83 -32.32 Q 237.83 -35.38 239.1 -38.17 Q 240.36 -40.97 242.67 -42.98 L 242.67 -42.98 Q 244.94 -44.98 248.2 -45.81 L 248.2 -45.81 Q 249.71 -46.17 251.36 -46.19 L 251.36 -46.19 Q 253.3 -46.19 255.48 -45.68 L 255.48 -45.68 L 255.48 -45.16 Q 254.08 -44.72 252.99 -44.03 Q 251.91 -43.35 251.19 -42.61 Q 250.48 -41.87 249.99 -40.81 Q 249.5 -39.75 249.24 -38.88 Q 248.98 -38.02 248.85 -36.77 Q 248.72 -35.53 248.7 -34.7 Q 248.67 -33.88 248.64 -32.61 L 248.64 -32.61 Q 248.64 -32.43 248.64 -32.32 L 248.64 -32.32 L 248.64 -3.86 Q 248.67 -2.51 249.64 -1.53 Q 250.61 -0.54 252.03 -0.54 L 252.03 -0.54 L 252.71 -0.54 L 252.71 0 L 233.69 0 L 233.71 -0.54 L 234.39 -0.54 Q 235.78 -0.54 236.77 -1.51 Q 237.75 -2.48 237.8 -3.86 L 237.8 -3.86 L 237.8 -17.24 L 223.59 -17.24 L 223.59 -3.73 Q 223.59 -1.63 223.18 0.35 Q 222.77 2.33 221.87 4.22 Q 220.98 6.11 219.58 7.5 L 219.58 7.5 Q 218.13 8.9 216.17 9.78 L 216.17 9.78 Q 214.28 10.64 211.84 10.64 L 211.84 10.64 Q 211.72 10.61 211.61 10.61 L 211.61 10.61 Q 209.02 10.56 205.79 9.65 L 205.79 9.65 Z M 256.25 -34.81 L 256.18 -35.32 Q 260.63 -35.58 266.88 -36.64 Q 273.13 -37.71 273.77 -37.78 L 273.77 -37.78 Q 275.74 -38.09 277.68 -38.07 L 277.68 -38.07 Q 278.07 -38.07 278.48 -38.07 L 278.48 -38.07 Q 280.81 -37.99 282.93 -37.67 Q 285.06 -37.34 286.88 -36.46 Q 288.71 -35.58 290.04 -34.34 Q 291.37 -33.1 292.17 -31.22 Q 292.98 -29.35 293.05 -27.02 L 293.05 -27.02 Q 293.05 -26.78 293.05 -26.55 L 293.05 -26.55 Q 293.08 -24.35 292.41 -22.46 L 292.41 -22.46 Q 291.68 -20.37 290.4 -18.92 Q 289.12 -17.47 287.44 -16.43 L 287.44 -16.43 Q 285.73 -15.37 283.92 -14.96 L 283.92 -14.96 Q 282.29 -14.57 280.66 -14.6 L 280.66 -14.6 Q 280.45 -14.6 280.27 -14.6 L 280.27 -14.6 Q 278.43 -14.65 276.88 -15.22 L 276.88 -15.22 Q 273.75 -16.41 272.87 -19.38 L 272.87 -19.38 L 273.38 -19.67 Q 273.95 -18.89 275.09 -18.68 L 275.09 -18.68 Q 275.46 -18.61 275.82 -18.61 L 275.82 -18.61 L 277.37 -18.92 Q 278.12 -19.2 278.82 -19.8 Q 279.52 -20.39 280.22 -21.38 Q 280.92 -22.36 281.33 -23.91 L 281.33 -23.91 Q 281.69 -25.31 281.67 -26.97 L 281.67 -26.97 Q 281.67 -27.17 281.67 -27.41 L 281.67 -27.41 Q 281.59 -31.52 279.41 -33.56 L 279.41 -33.56 Q 277.68 -35.2 275.12 -35.2 L 275.12 -35.2 Q 274.47 -35.2 273.77 -35.09 L 273.77 -35.09 L 271.16 -34.7 L 271.16 -3.86 Q 271.19 -2.48 272.17 -1.5 Q 273.15 -0.52 274.55 -0.52 L 274.55 -0.52 L 275.22 -0.52 L 275.25 0 L 256.23 0 L 256.23 -0.52 L 256.9 -0.52 Q 258.3 -0.52 259.28 -1.5 Q 260.26 -2.48 260.29 -3.86 L 260.29 -3.86 L 260.29 -31.81 Q 260.26 -33.23 259.51 -34.06 Q 258.76 -34.88 257.24 -34.88 L 257.24 -34.88 Q 256.8 -34.88 256.25 -34.81 L 256.25 -34.81 Z M 296.21 -18.35 L 296.21 -18.35 Q 296.21 -27.3 302.9 -32.57 Q 309.59 -37.83 321.03 -37.83 L 321.03 -37.83 Q 328.95 -37.83 334.67 -35.43 L 334.67 -35.43 L 334.15 -25.28 L 333.71 -25.28 Q 332.93 -28.05 331.61 -30.05 Q 330.29 -32.04 328.6 -33.13 Q 326.9 -34.21 325.12 -34.7 Q 323.33 -35.2 321.29 -35.2 L 321.29 -35.2 Q 314.87 -35.2 311.38 -30.86 Q 307.88 -26.53 307.88 -18.97 L 307.88 -18.97 Q 307.88 -11.28 311.53 -6.72 Q 315.18 -2.15 322.09 -1.92 L 322.09 -1.92 Q 325.76 -1.92 328.83 -3.18 Q 331.9 -4.45 334.11 -6.84 Q 336.32 -9.24 337.49 -12.94 L 337.49 -12.94 Q 338.5 -16.15 338.5 -20.06 L 338.5 -20.06 Q 338.5 -20.68 338.47 -21.3 L 338.47 -21.3 L 338.91 -21.3 Q 339.19 -19.2 339.19 -17.26 L 339.19 -17.26 Q 339.19 -14.44 338.57 -11.9 L 338.57 -11.9 Q 337.51 -7.66 335.04 -4.93 Q 332.57 -2.2 328.97 -0.72 Q 325.38 0.75 321.03 0.75 L 321.03 0.75 Q 315.02 0.75 310.3 -0.65 Q 305.58 -2.04 302.5 -4.58 Q 299.42 -7.12 297.81 -10.61 Q 296.21 -14.1 296.21 -18.35 Z" stroke-linecap="round"/>
  </g>
</svg>