<?xml version="1.0" encoding="utf-8"?>
<svg version="1.1" width="1024" height="1024" viewBox="237.319 216.858 578.6 433.873" xmlns="http://www.w3.org/2000/svg">
  <desc>Created with Fabric.js 3.1.0</desc>
  <g transform="matrix(1.5745007680491552 0 0 1.5745007680491552 535.6175115207374 439.5729646697389)" style="" id="logo-logo">
    <g transform="matrix(0.13 0 0 -0.13 0 -2.842171e-14)">
      <path style="stroke: none; stroke-width: 1; stroke-dasharray: none; stroke-linecap: butt; stroke-dashoffset: 0; stroke-linejoin: miter; stroke-miterlimit: 4; fill-rule: nonzero; opacity: 1; fill: rgb(20, 12, 12);" paint-order="stroke" transform=" translate(-13673.45, -2474.2634947998863)" d="m 14500.9 1747.7 c -649.1 463.6 -657.1 627.4 -1002.6 762.6 c 211.3 55.1 364.4 217.6 364.4 409.61 c 0 236.76 -233 428.09 -520.1 432.05 c -307.4 36.86 -703.4 49.18 -978 119.2 c 203.5 -149.53 435.3 -227.17 652.2 -264.78 c -63.1 -39.57 -130 -73.75 -200.4 -102.05 c 255 -57.47 426.3 45.91 614.5 6.54 c 52 -17.6 100 -44.98 131.3 -87.62 c 1.2 -1.65 2.3 -3.32 3.4 -5 c 2.1 -3.06 4.1 -6.21 6 -9.42 c 1.2 -2 2.4 -4 3.6 -6.03 c 12.7 -23.18 21.1 -50.09 23.4 -81.5 l 1 1.81 l 0.2 -1.86 l 0.3 0.05 c 0 -2.01 0 -3.95 0 -6.02 V 2913 c 0 -1.12 0.1 -2.21 0.1 -3.32 c 0 -9.71 -0.9 -19.26 -2.3 -28.67 c -14.5 -107.95 -97.4 -163.83 -188.9 -192.29 c -27.2 -9.3 -56.4 -16.02 -87 -19.52 c -97.2 -14.6 -182.4 -6.8 -182.4 -6.8 l -0.8 0.6 c -47 0.7 -124.7 0.2 -210.1 -7.4 c -144.8 -13 -342.8 -48.8 -424.6 -148.4 c -12.8 -15.6 -25 -58.9 -37.8 -81.8 c -1.5 -1.7 -3.2 -3.6 -5.1 -6 c -29.1 -36.2 -99.5 -144.7 -6.3 -258.2 c 0 0 89.6 198.9 545.1 145.5 c 11.6 -1.3 22.6 -2.8 33 -3.9 c 208.4 -54 310.6 -74 507.4 -274.4 c 328.6 -334.7 637.4 -583.9 1441.9 -547.5 c 0 0 -238.9 93.5 -481.4 266.8" stroke-linecap="round"/>
    </g>
  </g>
</svg>