<?xml version="1.0" encoding="utf-8"?>
<svg viewBox="10.28 35.19 424.493 424.5" xmlns="http://www.w3.org/2000/svg">
  <path style="fill: rgb(216, 216, 216); stroke: rgb(0, 0, 0);"/>
  <path style="stroke: rgb(0, 0, 0); fill: none; stroke-width: 25px; stroke-linecap: round;" d="M 83.692 48.092 C 83.692 48.092 120.256 101.239 121.013 135.686 C 121.859 174.179 102.387 209.77 83.692 237.334 C 65.277 264.483 41.574 295.568 41.177 333.927 C 40.76 374.197 83.692 437.284 83.692 437.284"/>
  <path style="stroke: rgb(0, 0, 0); fill: none; stroke-width: 25px; stroke-linecap: round;" d="M 76.488 342.511 L 84.186 437.284 L 24.439 406.941"/>
  <path style="stroke: rgb(0, 0, 0); fill: none; stroke-width: 25px; stroke-linecap: round;" d="M 181.181 48.092 C 181.181 48.092 217.745 101.239 218.502 135.686 C 219.348 174.179 199.876 209.77 181.181 237.334 C 162.766 264.483 139.063 295.568 138.666 333.927 C 138.249 374.197 181.181 437.284 181.181 437.284"/>
  <path style="stroke: rgb(0, 0, 0); fill: none; stroke-width: 25px; stroke-linecap: round;" d="M 173.977 342.511 L 181.675 437.284 L 121.928 406.941"/>
  <path style="stroke: rgb(0, 0, 0); fill: none; stroke-width: 25px; stroke-linecap: round;" d="M 286.288 48.092 C 286.288 48.092 322.852 101.239 323.609 135.686 C 324.455 174.179 304.983 209.77 286.288 237.334 C 267.873 264.483 244.17 295.568 243.773 333.927 C 243.356 374.197 286.288 437.284 286.288 437.284"/>
  <path style="stroke: rgb(0, 0, 0); fill: none; stroke-width: 25px; stroke-linecap: round;" d="M 279.084 342.511 L 286.782 437.284 L 227.035 406.941"/>
  <path style="stroke: rgb(0, 0, 0); fill: none; stroke-width: 25px; stroke-linecap: round;" d="M 383.777 48.092 C 383.777 48.092 420.341 101.239 421.098 135.686 C 421.944 174.179 402.472 209.77 383.777 237.334 C 365.362 264.483 341.659 295.568 341.262 333.927 C 340.845 374.197 383.777 437.284 383.777 437.284"/>
  <path style="stroke: rgb(0, 0, 0); fill: none; stroke-width: 25px; stroke-linecap: round;" d="M 376.573 342.511 L 384.271 437.284 L 324.524 406.941"/>
</svg>