<?xml version="1.0" encoding="utf-8"?>
<svg viewBox="4.842 3.504 32.78 32.024" xmlns="http://www.w3.org/2000/svg">
  <polygon style="stroke: rgb(0, 0, 0); fill: rgb(3, 169, 252);" points="21.269 5.081 16.571 14.154 6.581 15.794 13.515 23.837 12.226 33.527 21.206 29.475 30.286 33.565 28.994 23.26 35.931 15.863 25.823 13.844"/>
  <path d="M 37.124 15.513 C 36.847 14.714 36.136 14.129 35.28 14.002 L 26.954 12.764 L 23.335 5.25 C 22.954 4.461 22.139 3.956 21.243 3.956 C 20.347 3.956 19.532 4.461 19.151 5.25 L 15.532 12.764 L 7.205 14.002 C 6.35 14.129 5.639 14.714 5.363 15.513 C 5.088 16.314 5.296 17.196 5.9 17.798 L 12.002 23.89 L 10.587 32.341 C 10.443 33.192 10.812 34.046 11.535 34.544 C 11.932 34.817 12.399 34.956 12.866 34.956 C 13.25 34.956 13.635 34.862 13.984 34.675 L 21.243 30.767 L 28.503 34.675 C 28.852 34.862 29.237 34.956 29.62 34.956 C 30.087 34.956 30.554 34.817 30.952 34.544 C 31.675 34.046 32.042 33.192 31.899 32.341 L 30.483 23.89 L 36.587 17.798 C 37.19 17.195 37.397 16.313 37.124 15.513 Z M 28.831 22.319 C 28.319 22.829 28.087 23.548 28.204 24.253 L 29.62 32.704 L 22.36 28.798 C 22.012 28.61 21.628 28.517 21.242 28.517 C 20.858 28.517 20.473 28.611 20.125 28.798 L 12.865 32.704 L 14.281 24.253 C 14.399 23.548 14.167 22.829 13.655 22.319 L 7.553 16.227 L 15.879 14.987 C 16.64 14.874 17.295 14.398 17.622 13.719 L 21.243 6.207 L 24.863 13.72 C 25.191 14.399 25.845 14.874 26.605 14.988 L 34.933 16.228 L 28.831 22.319 Z" id="star" style="fill: rgb(45, 45, 45);"/>
</svg>